<svg xmlns="http://www.w3.org/2000/svg" width="14.738" height="15.966" viewBox="0 0 14.738 15.966">
  <path d="M45.5,17.225H43.662v-.614a.614.614,0,1,0-1.228,0v.614H36.293v-.614a.614.614,0,1,0-1.228,0v.614H33.222a1.229,1.229,0,0,0-1.228,1.228V30.735a1.229,1.229,0,0,0,1.228,1.228H45.5a1.229,1.229,0,0,0,1.228-1.228V18.453A1.229,1.229,0,0,0,45.5,17.225Zm0,3.685H33.222V18.453h1.842v.614a.614.614,0,1,0,1.228,0v-.614h6.141v.614a.614.614,0,1,0,1.228,0v-.614H45.5Z" transform="translate(-31.994 -15.997)" fill="#8f9ab3"/>
</svg>
