<svg xmlns="http://www.w3.org/2000/svg" width="32" height="32" viewBox="0 0 32 32">
	<g transform="translate(0 -0.921)">
		<rect fill="none" width="32" height="32" transform="translate(0 0.921)" />
		<path fill="#FFFFFF" d="M43.174,36.675h-1.3v-3.74A.954.954,0,0,0,40.9,32H25.343a.954.954,0,0,0-.973.935v3.74h-1.3a2.955,2.955,0,0,0-3.08,2.8v9.349a.954.954,0,0,0,.973.935h3.4v4.207a.954.954,0,0,0,.973.935H40.9a.954.954,0,0,0,.973-.935V49.764h3.4a.954.954,0,0,0,.973-.935V39.479A2.955,2.955,0,0,0,43.174,36.675Zm-16.858-2.8H39.932v2.8H26.316ZM39.932,53.036H26.316V46.959H39.932Zm.486-9.817a1.4,1.4,0,1,1,1.459-1.4A1.431,1.431,0,0,1,40.418,43.219Z" transform="translate(-16.641 -26.793)" />
	</g>
</svg>
