<svg xmlns="http://www.w3.org/2000/svg" width="43.705" height="43.706" viewBox="0 0 43.705 43.706"><defs><style>.a{fill:#c5d2e7;}</style></defs><path class="a" d="M53.209,67.578a1.681,1.681,0,0,1-1.038-1.553V57.62H47.129a1.681,1.681,0,0,1-1.681-1.681V35.767a1.681,1.681,0,0,1,1.681-1.681h5.043V25.681a1.681,1.681,0,0,1,2.87-1.189L75.213,44.664a1.681,1.681,0,0,1,0,2.377L55.041,67.214A1.681,1.681,0,0,1,53.209,67.578ZM35.362,55.939V35.767a1.681,1.681,0,1,0-3.362,0V55.939a1.681,1.681,0,1,0,3.362,0Zm6.724,0V35.767a1.681,1.681,0,1,0-3.362,0V55.939a1.681,1.681,0,1,0,3.362,0Z" transform="translate(-32 -24)"/></svg>