<svg xmlns="http://www.w3.org/2000/svg" width="24" height="24" viewBox="0 0 24 24">
  <g id="MenuCollapse" transform="translate(-12 -12)">
    <rect width="24" height="24" transform="translate(12 12)" fill="none"/>
    <g id="Layer_2" data-name="Layer 2" transform="translate(12 12)">
      <g id="menu-arrow">
        <rect width="24" height="24" transform="translate(24 24) rotate(180)" fill="#2d3955" opacity="0"/>
        <path d="M20.05,11H5.91l1.3-1.29A1,1,0,0,0,5.79,8.29l-3,3a1,1,0,0,0,0,1.42l3,3a1,1,0,1,0,1.42-1.42L5.91,13H20.05a1,1,0,0,0,.95-.95V12A1,1,0,0,0,20.05,11Z" fill="#2d3955"/>
        <rect width="18" height="2" rx="0.95" transform="translate(3 17)" fill="#2d3955"/>
        <rect width="18" height="2" rx="0.95" transform="translate(3 5)" fill="#2d3955"/>
      </g>
    </g>
  </g>
</svg>
