<svg xmlns="http://www.w3.org/2000/svg" xmlns:xlink="http://www.w3.org/1999/xlink" width="16" height="16" viewBox="0 0 16 16">
  <defs>
    <clipPath id="clip-path8">
      <rect width="16" height="16" transform="translate(282 610)" fill="#fff"/>
    </clipPath>
  </defs>
  <g id="Icon" transform="translate(-282 -610)" clip-path="url(#clip-path8)">
    <g id="add" transform="translate(274 602)">
      <rect width="16" height="16" transform="translate(8 8)" fill="none"/>
      <g id="add-2" data-name="add" transform="translate(8 8)">
        <rect id="Canvas" width="16" height="16" opacity="0"/>
        <path d="M13.5,7H9V2.5A.5.5,0,0,0,8.5,2h-1a.5.5,0,0,0-.5.5V7H2.5a.5.5,0,0,0-.5.5v1a.5.5,0,0,0,.5.5H7v4.5a.5.5,0,0,0,.5.5h1a.5.5,0,0,0,.5-.5V9h4.5a.5.5,0,0,0,.5-.5v-1A.5.5,0,0,0,13.5,7Z" fill="#fff"/>
      </g>
    </g>
  </g>
</svg>
