<svg xmlns="http://www.w3.org/2000/svg" width="54" height="54" viewBox="0 0 54 54"><defs><style>.c{fill:none;}.b{fill:#c5d2e7;}</style></defs><g transform="translate(-0.021 -0.306)"><rect class="c" width="54" height="54" transform="translate(0.021 0.306)"/><path class="b" d="M61.3,73.432a6.794,6.794,0,0,0-6.567,5.086H34.173a6.782,6.782,0,0,1,0-13.564H54.518a8.477,8.477,0,1,0,0-16.955H34.173a1.7,1.7,0,0,0,0,3.391H54.518a5.086,5.086,0,1,1,0,10.173H34.173a10.173,10.173,0,1,0,0,20.346h20.56A6.782,6.782,0,1,0,61.3,73.432Z" transform="translate(-18.914 -37.756)"/></g></svg>