<svg xmlns="http://www.w3.org/2000/svg" width="32" height="32" viewBox="0 0 32 32"><defs><style>.a{fill:none;}.b{fill:#f7f9fd;}</style></defs><g transform="translate(0 0.161)"><rect class="a" width="32" height="32" transform="translate(0 -0.161)"/><path class="b" d="M54.968,20H49.975V19a3,3,0,0,0-3-3H40.986a3,3,0,0,0-3,3v1H32.995a1,1,0,0,0,0,2h1V39.971a2,2,0,0,0,2,2H51.972a2,2,0,0,0,2-2V21.993h1a1,1,0,1,0,0-2ZM41.984,34.977a1,1,0,0,1-2,0v-7.99a1,1,0,0,1,2,0Zm5.993,0a1,1,0,0,1-2,0v-7.99a1,1,0,1,1,2,0Zm0-14.982h-7.99V19a1,1,0,0,1,1-1h5.993a1,1,0,0,1,1,1Z" transform="translate(-28.001 -14.124)"/></g></svg>