<svg xmlns="http://www.w3.org/2000/svg" width="16" height="16" viewBox="0 0 16 16">
	<rect fill="none" width="16" height="16" />
	<path fill="#1c2842" d="M31.625,34.346h-.651V32.469A.479.479,0,0,0,30.486,32H22.678a.479.479,0,0,0-.488.469v1.876h-.651a1.483,1.483,0,0,0-1.545,1.407v4.691a.479.479,0,0,0,.488.469H22.19v2.111a.479.479,0,0,0,.488.469h7.808a.479.479,0,0,0,.488-.469V40.913h1.708a.479.479,0,0,0,.488-.469V35.753A1.483,1.483,0,0,0,31.625,34.346Zm-8.459-1.407H30v1.407H23.166ZM30,42.555H23.166V39.506H30Zm.244-4.926a.7.7,0,1,1,.732-.7A.718.718,0,0,1,30.242,37.629Z" transform="translate(-18.312 -29.849)" />
</svg>
