<svg xmlns="http://www.w3.org/2000/svg" width="32" height="32" viewBox="0 0 32 32">
	<g transform="translate(0 -0.154)">
		<rect fill="none" width="32" height="32" transform="translate(0 0.154)" />
		<path fill="#a187bf" d="M50.442,19.467h-4.01V18.6A2.512,2.512,0,0,0,44.026,16H39.214a2.512,2.512,0,0,0-2.406,2.6v.867H32.8a.869.869,0,0,0,0,1.733h.8V36.8a1.674,1.674,0,0,0,1.6,1.733H48.036a1.674,1.674,0,0,0,1.6-1.733V21.2h.8a.869.869,0,0,0,0-1.733Zm-10.425,13a.8.8,0,1,1-1.6,0V25.534a.8.8,0,1,1,1.6,0Zm4.812,0a.8.8,0,1,1-1.6,0V25.534a.8.8,0,1,1,1.6,0Zm0-13H38.412V18.6a.837.837,0,0,1,.8-.867h4.812a.837.837,0,0,1,.8.867Z" transform="translate(-25.423 -12.955)" />
	</g>
</svg>
