<svg xmlns="http://www.w3.org/2000/svg" width="63.009" height="46.1" viewBox="0 0 63.009 46.1">
	<g transform="translate(0 -64.84)">
		<g transform="translate(0 64.84)">
			<path fill="#c5d2e7" d="M55.4,75.041V107.6a2.968,2.968,0,0,1-.071.658l-.211.7a3.286,3.286,0,0,1-3.031,1.973H3.313A3.323,3.323,0,0,1,.094,108.4,2.981,2.981,0,0,1,0,107.6V67.683A2.838,2.838,0,0,1,2.833,64.84H17.349a2.88,2.88,0,0,1,2.467,1.41l3.43,5.944H52.582A2.833,2.833,0,0,1,55.4,75.04Z" transform="translate(0 -64.84)" />
			<path fill="#f7f9fd" d="M60.764,180.939a2.874,2.874,0,0,1,2.747,3.718L55.96,209.223l-.211.7a3.287,3.287,0,0,1-3.031,1.973H3.942a3.323,3.323,0,0,1-3.219-2.536l7.915-26.381a2.874,2.874,0,0,1,2.749-2.045Z" transform="translate(-0.629 -165.801)" />
		</g>
	</g>
</svg>
