<svg xmlns="http://www.w3.org/2000/svg" width="18" height="18" viewBox="0 0 18 18"><defs><style>.a{fill:#f0f;opacity:0;}.b{fill:#57a05a;}</style></defs><g transform="translate(-0.105)"><rect class="a" width="18" height="18" transform="translate(0.105)"/><path class="b" d="M8,16a8,8,0,1,1,8-8A8.009,8.009,0,0,1,8,16ZM4.5,7.339a.464.464,0,0,0-.334.142l-.523.536a.495.495,0,0,0,0,.687l3.069,3.154A.465.465,0,0,0,7.043,12h.029a.473.473,0,0,0,.345-.186L12.4,5.239a.5.5,0,0,0-.084-.677L11.745,4.1a.461.461,0,0,0-.293-.1.467.467,0,0,0-.372.185L6.936,9.648,4.83,7.481A.466.466,0,0,0,4.5,7.339Z" transform="translate(1.105 1)"/></g></svg>