<svg xmlns="http://www.w3.org/2000/svg" xmlns:xlink="http://www.w3.org/1999/xlink" width="16" height="16" viewBox="0 0 16 16">
  <defs>
    <clipPath id="clip-path1">
      <rect id="123" width="16" height="16" transform="translate(275 819)" fill="#fff"/>
    </clipPath>
  </defs>
  <g id="1234" transform="translate(-275 -819)" clip-path="url(#clip-path1)">
    <g id="Trash1" transform="translate(267 811)">
      <rect width="16" height="16" transform="translate(8 8)" fill="none"/>
      <path d="M13.927,2.352H10.556V1.51a.872.872,0,0,0-.9-.843h-4.5a.872.872,0,0,0-.9.843v.843H.891a.218.218,0,0,0-.225.211v.421A.218.218,0,0,0,.891,3.2h.9L2.875,13.773a.44.44,0,0,0,.45.379H11.5a.44.44,0,0,0,.45-.379L13.028,3.2h.9a.218.218,0,0,0,.225-.211V2.563A.218.218,0,0,0,13.927,2.352ZM4.742,12.045a.441.441,0,0,1-.479-.392h0L3.781,4.91A.433.433,0,0,1,4.2,4.46a.442.442,0,0,1,.48.393L5.162,11.6a.432.432,0,0,1-.418.449Zm3.117-.421a.45.45,0,0,1-.9,0V4.881a.45.45,0,0,1,.9,0Zm1.8-9.271h-4.5V1.51h4.5Zm.9,9.3a.442.442,0,0,1-.48.393.433.433,0,0,1-.419-.45l.481-6.743a.442.442,0,0,1,.48-.393.433.433,0,0,1,.419.45Z" transform="translate(8.591 8.591)" fill="#fff"/>
    </g>
  </g>
</svg>
