<?xml version="1.0" encoding="utf-8"?>
<!-- Generator: Adobe Illustrator 16.0.0, SVG Export Plug-In . SVG Version: 6.00 Build 0)  -->
<!DOCTYPE svg PUBLIC "-//W3C//DTD SVG 1.1//EN" "http://www.w3.org/Graphics/SVG/1.1/DTD/svg11.dtd">
<svg version="1.1" id="Layer_1" xmlns="http://www.w3.org/2000/svg" xmlns:xlink="http://www.w3.org/1999/xlink" x="0px" y="0px"
	 width="28px" height="28px" viewBox="34.065 -0.441 28 28" enable-background="new 34.065 -0.441 28 28" xml:space="preserve">
<g id="Сгруппировать_3874" transform="translate(348.864 -114.354)">
	<g id="Сгруппировать_3861" transform="translate(-314.462 114.354)">
		<g>
			<defs>
				<path id="SVGID_1_" d="M6.051,1.285v3.06H3.024v-3.06C1.355,1.285,0,2.637-0.001,4.307v3.04H6.05v3.007h3.019V1.285H6.051z"/>
			</defs>
			<clipPath id="SVGID_2_">
				<use xlink:href="#SVGID_1_"  overflow="visible"/>
			</clipPath>
			<g id="Сгруппировать_353" transform="translate(0)" clip-path="url(#SVGID_2_)">
				
					<rect id="Прямоугольник_861" x="-1.873" y="-0.593" transform="matrix(-0.7307 0.6827 -0.6827 -0.7307 11.8383 6.9773)" fill="#A187BF" width="12.831" height="12.832"/>
			</g>
		</g>
		<g>
			<defs>
				<path id="SVGID_3_" d="M12.108,1.285L12.108,1.285v3.006h12.184v4.494h3.035V4.17l0,0c-0.065-1.613-1.393-2.887-3.007-2.885
					H12.108z"/>
			</defs>
			<clipPath id="SVGID_4_">
				<use xlink:href="#SVGID_3_"  overflow="visible"/>
			</clipPath>
			<g id="Сгруппировать_354" transform="translate(12.108)" clip-path="url(#SVGID_4_)">
				
					<rect id="Прямоугольник_862" x="-0.505" y="-2.902" transform="matrix(-0.7307 0.6827 -0.6827 -0.7307 16.6221 3.5153)" fill="#A187BF" width="16.246" height="15.876"/>
			</g>
		</g>
		<g>
			<defs>
				<path id="SVGID_5_" d="M21.21,14.794h3.094v3.1H21.21V14.794z M18.182,7.385v10.508h-3.06V7.385H12.1v10.508H9.07v-4.432H6.052
					v4.433H3.025V10.47H0v10.429h24.322c1.595-0.001,2.911-1.248,3-2.841l0,0v-6.273h-6.121v-4.4H18.182z"/>
			</defs>
			<clipPath id="SVGID_6_">
				<use xlink:href="#SVGID_5_"  overflow="visible"/>
			</clipPath>
			<g id="Сгруппировать_355" transform="translate(0 6.1)" clip-path="url(#SVGID_6_)">
				
					<rect id="Прямоугольник_863" x="-0.929" y="-6.228" transform="matrix(-0.7307 0.6827 -0.6827 -0.7307 29.1551 4.5838)" fill="#A187BF" width="29.205" height="28.541"/>
			</g>
		</g>
		<g>
			<defs>
				<path id="SVGID_7_" d="M0,22.807v3.025h0.644c1.313,0,2.377-1.064,2.377-2.376v-0.645H0V22.807z"/>
			</defs>
			<clipPath id="SVGID_8_">
				<use xlink:href="#SVGID_7_"  overflow="visible"/>
			</clipPath>
			<g id="Сгруппировать_356" transform="translate(0 21.523)" clip-path="url(#SVGID_8_)">
				
					<rect id="Прямоугольник_864" x="-0.623" y="0.662" transform="matrix(-0.7306 0.6828 -0.6828 -0.7306 4.5344 3.812)" fill="#A187BF" width="4.277" height="4.278"/>
			</g>
		</g>
	</g>
</g>
</svg>
