<svg xmlns="http://www.w3.org/2000/svg" width="32" height="32" viewBox="0 0 32 32">
	<g transform="translate(0 -0.221)">
		<rect fill="none" width="32" height="32" transform="translate(0 0.221)" />
		<path fill="#FFFFFF" d="M55.821,36.539l-1.994-3.988A1,1,0,0,0,52.935,32H34.991a1,1,0,0,0-.892.551l-1.994,3.988a1,1,0,0,0-.105.446V53.932a2,2,0,0,0,1.994,1.994H53.932a2,2,0,0,0,1.994-1.994V36.985a1,1,0,0,0-.105-.446ZM48.9,47.417l-4.23,4.23-.021.019c-.017.016-.033.031-.051.046l-.026.019c-.017.013-.035.027-.053.039l-.022.013c-.02.013-.041.026-.062.037l-.016.008c-.024.012-.048.024-.072.034l-.011,0c-.026.011-.053.021-.081.029l-.011,0c-.027.008-.055.015-.083.021l-.025,0c-.024,0-.048.008-.072.011a.984.984,0,0,1-.2,0c-.024,0-.048-.007-.072-.011l-.025,0c-.028-.006-.056-.013-.083-.021l-.011,0c-.028-.008-.055-.018-.081-.029l-.011,0c-.025-.01-.049-.022-.072-.034l-.016-.008c-.021-.011-.042-.024-.062-.037l-.022-.013c-.018-.012-.035-.026-.053-.039l-.026-.019c-.017-.014-.033-.03-.05-.045l-.022-.02-4.23-4.23a1,1,0,0,1,1.41-1.41l2.528,2.528V40.972a1,1,0,0,1,1.994,0v7.562l2.528-2.528a1,1,0,0,1,1.41,1.41ZM34.61,35.988l1-1.994H52.319l1,1.994Z" transform="translate(-28.012 -27.693)" />
	</g>
</svg>
