<svg xmlns="http://www.w3.org/2000/svg" width="40.957" height="43.465" viewBox="0 0 40.957 43.465">
	<g transform="translate(-14.769)">
		<g transform="translate(14.769)">
			<g transform="translate(0)">
				<path fill="#a187bf" d="M55.493,11.762,44.419.256a.836.836,0,0,0-.6-.256h-16.5a3.353,3.353,0,0,0-3.35,3.348v11.7H17.275a2.509,2.509,0,0,0-2.506,2.505V30.093A2.509,2.509,0,0,0,17.275,32.6h6.688v7.524a3.35,3.35,0,0,0,3.35,3.342H52.377a3.349,3.349,0,0,0,3.35-3.341V12.342A.836.836,0,0,0,55.493,11.762ZM44.024,2.257l9.09,9.446h-9.09ZM17.275,30.927a.835.835,0,0,1-.834-.834V17.551a.835.835,0,0,1,.834-.834H39.846a.835.835,0,0,1,.834.834V30.093a.835.835,0,0,1-.834.834Zm36.779,9.2a1.675,1.675,0,0,1-1.678,1.669H27.313a1.676,1.676,0,0,1-1.678-1.671V32.6H39.846a2.509,2.509,0,0,0,2.506-2.505V17.551a2.509,2.509,0,0,0-2.506-2.505H25.635V3.348a1.679,1.679,0,0,1,1.678-1.677H42.352V12.538a.836.836,0,0,0,.836.836H54.055V40.124Z" transform="translate(-14.769)" />
			</g>
		</g>
		<g transform="translate(19.678 20.404)">
			<g transform="translate(0)">
				<path fill="#a187bf" d="M77.68,241.157a1.882,1.882,0,0,0-1.033-.7,8.439,8.439,0,0,0-1.724-.108H72.6v7.18h1.45v-2.708h.945a8.272,8.272,0,0,0,1.5-.1,2.1,2.1,0,0,0,.752-.34,1.969,1.969,0,0,0,.61-.708,2.342,2.342,0,0,0,.24-1.112A2.229,2.229,0,0,0,77.68,241.157Zm-1.242,1.976a.951.951,0,0,1-.453.353,3.748,3.748,0,0,1-1.146.113h-.793v-2.037h.7a6.967,6.967,0,0,1,1.043.049,1,1,0,0,1,.583.318.927.927,0,0,1,.23.646A.965.965,0,0,1,76.438,243.133Z" transform="translate(-72.596 -240.346)" />
			</g>
		</g>
		<g transform="translate(26.363 20.404)">
			<path fill="#a187bf" d="M157.13,242.308a3.137,3.137,0,0,0-.686-1.163,2.4,2.4,0,0,0-1.082-.661,5.174,5.174,0,0,0-1.366-.137h-2.65v7.18h2.728a4.383,4.383,0,0,0,1.283-.152,2.547,2.547,0,0,0,1.019-.573,3.166,3.166,0,0,0,.769-1.268,4.719,4.719,0,0,0,.22-1.528A5.3,5.3,0,0,0,157.13,242.308Zm-1.411,2.948a1.52,1.52,0,0,1-.38.693,1.338,1.338,0,0,1-.585.3,3.948,3.948,0,0,1-.877.069H152.8v-4.756h.651a6.569,6.569,0,0,1,1.19.069,1.38,1.38,0,0,1,.671.338,1.643,1.643,0,0,1,.411.7,4.288,4.288,0,0,1,.147,1.278A4.684,4.684,0,0,1,155.72,245.256Z" transform="translate(-151.346 -240.346)" />
		</g>
		<g transform="translate(33.622 20.404)">
			<path fill="#a187bf" d="M241.768,241.561v-1.215h-4.922v7.18h1.45v-3.051h3V243.26h-3v-1.7Z" transform="translate(-236.846 -240.346)" />
		</g>
	</g>
</svg>
