<svg xmlns="http://www.w3.org/2000/svg" width="55" height="55" viewBox="0 0 55 55"><defs><style>.a{fill:none;}.b{fill:#c5d2e7;}</style></defs><g transform="translate(0 -0.035)"><rect class="a" width="55" height="55" transform="translate(0 0.035)"/><path class="b" d="M64.182,50.415a15.56,15.56,0,0,1-17.165,3.232L35.829,66.6q-.041.048-.085.092a6.879,6.879,0,1,1-9.729-9.729c.03-.03.06-.058.092-.086L39.06,45.69A15.484,15.484,0,0,1,59.281,25.216a1.721,1.721,0,0,1,.545,2.8l-8.37,8.37.811,4.054,4.054.811,8.37-8.37a1.721,1.721,0,0,1,2.8.545A15.42,15.42,0,0,1,64.182,50.415Z" transform="translate(-18.84 -18.832)"/></g></svg>