<svg xmlns="http://www.w3.org/2000/svg" width="32" height="32" viewBox="0 0 32 32">
	<g transform="translate(0.333 0.432)">
		<rect fill="none" width="32" height="32" transform="translate(-0.333 -0.432)" />
		<path fill="#FFFFFF" d="M54.388,31.993H38.809a.974.974,0,0,0-.974.974v4.869H32.967a.974.974,0,0,0-.974.974V54.388a.974.974,0,0,0,.974.974H48.546a.974.974,0,0,0,.974-.974V49.52h4.869a.974.974,0,0,0,.974-.974V32.967a.974.974,0,0,0-.974-.974Zm-.974,15.579H49.52V38.809a.974.974,0,0,0-.974-.974H39.783V33.941H53.415Z" transform="translate(-27.844 -28.277)" />
	</g>
</svg>
