<svg xmlns="http://www.w3.org/2000/svg" width="32" height="32" viewBox="0 0 32 32">
	<g transform="translate(0.079 0.079)">
		<rect fill="none" width="32" height="32" transform="translate(-0.079 -0.079)" />
		<path fill="#FFFFFF" d="M49.87,48.971q0-.028,0-.055t0-.045c0-.017,0-.034-.008-.051s-.006-.031-.009-.046-.008-.032-.012-.048-.009-.031-.014-.046-.011-.031-.017-.047-.012-.029-.018-.044-.014-.03-.022-.045l-.022-.042-.026-.042-.028-.041-.028-.038-.034-.041-.016-.019-.015-.015-.037-.037-.036-.032-.037-.03-.041-.031-.037-.024-.045-.027-.04-.021-.045-.022-.045-.018-.044-.016-.049-.014-.044-.011-.05-.009L49,48.008l-.048,0L48.9,48H24.975l-.055,0-.045,0-.05.008-.047.009-.047.012-.047.014-.046.017-.043.017-.047.023-.039.02-.046.028-.036.024-.042.031-.036.029-.036.033-.037.036-.015.015-.016.019-.034.041-.028.038-.028.041-.026.042-.022.042c-.008.015-.015.03-.022.045s-.012.029-.018.044-.012.031-.017.047-.009.03-.014.046-.009.032-.012.048-.006.03-.009.046-.006.034-.008.051,0,.03,0,.045,0,.037,0,.055,0,.016,0,.024V65.911a1.992,1.992,0,0,0,1.99,1.99H47.881a1.992,1.992,0,0,0,1.99-1.99V49C49.871,48.987,49.87,48.979,49.87,48.971ZM25.99,51.257l7.3,6.693-7.3,6.693Zm1.563,14.654,7.211-6.61,1.5,1.374a1,1,0,0,0,1.345,0l1.5-1.374,7.211,6.611Zm13.026-7.96,7.3-6.694V64.645Z" transform="translate(-21.015 -42.03)" />
	</g>
</svg>
