<svg xmlns="http://www.w3.org/2000/svg" width="20" height="20" viewBox="0 0 20 20">
  <g id="alert-triangle" transform="translate(0.075 0.075)">
    <rect width="20" height="20" transform="translate(19.925 -0.075) rotate(90)" opacity="0"/>
    <path d="M18.019,12.272,11.965,3.134a2.857,2.857,0,0,0-4.562,0L1.35,12.272a1.989,1.989,0,0,0-.039,2.155,2.717,2.717,0,0,0,2.32,1.221H15.738a2.723,2.723,0,0,0,2.32-1.192A1.99,1.99,0,0,0,18.019,12.272Zm-8.334.5a.722.722,0,1,1,.789-.718A.756.756,0,0,1,9.684,12.775ZM10.474,9.9A.793.793,0,0,1,8.9,9.9V7.028a.793.793,0,0,1,1.578,0Z" transform="translate(0.244 0.481)" fill="#b33239"/>
  </g>
</svg>
