<svg xmlns="http://www.w3.org/2000/svg" width="20" height="20" viewBox="0 0 20 20">
	<g transform="translate(0 0.074)">
		<rect fill="none" width="20" height="20" transform="translate(0 -0.074)" />
		<path fill="#a187bf" d="M32.165,24a8.163,8.163,0,1,0,8.163,8.163A8.163,8.163,0,0,0,32.165,24Zm0,3.768a.942.942,0,1,1-.942.942.942.942,0,0,1,.942-.942Zm.628,8.791h-.628a.628.628,0,0,1-.628-.628V32.163a.628.628,0,0,1,0-1.256h.628a.628.628,0,0,1,.628.628V35.3a.628.628,0,0,1,0,1.256Z" transform="translate(-22.118 -22.283)" />
	</g>
</svg>
