<svg xmlns="http://www.w3.org/2000/svg" width="48" height="48" viewBox="0 0 48 48">
	<g transform="translate(-30 -18)">
		<path fill="#d98e28" d="M54,18A24,24,0,1,0,78,42,24.027,24.027,0,0,0,54,18Zm0,44.308A20.308,20.308,0,1,1,74.308,42,20.331,20.331,0,0,1,54,62.308Z" />
		<path fill="#d98e28" d="M103.846,70.615a1.846,1.846,0,0,0,1.846-1.846V55.846a1.846,1.846,0,1,0-3.692,0V68.769A1.846,1.846,0,0,0,103.846,70.615Z" transform="translate(-49.846 -24.923)" />
		<circle fill="#d98e28" cx="2.769" cy="2.769" r="2.769" transform="translate(51.231 49.385)" />
	</g>
</svg>
