<svg xmlns="http://www.w3.org/2000/svg" xmlns:xlink="http://www.w3.org/1999/xlink" width="21" height="22" viewBox="0 0 21 22">
  <defs>
    <clipPath id="clip-path2">
      <ellipse cx="10.5" cy="11" rx="10.5" ry="11" transform="translate(0.358 -0.188)" fill="#606a81"/>
    </clipPath>
  </defs>
  <g transform="translate(-0.358 0.188)" clip-path="url(#clip-path2)">
    <g id="Help">
      <rect width="21" height="22" transform="translate(0.358 -0.188)" fill="none"/>
      <g id="Help-2" data-name="Help">
        <rect id="ToDelete" width="21" height="22" transform="translate(0.358 -0.188)" fill="#ff13dc" opacity="0"/>
        <path d="M10.944,1.333a9.611,9.611,0,1,0,9.611,9.611A9.611,9.611,0,0,0,10.944,1.333ZM12.506,16.11a1.468,1.468,0,0,1-.36,1.081,1.469,1.469,0,0,1-1.081.36,1.442,1.442,0,0,1,0-2.883C12.025,14.668,12.626,15.269,12.506,16.11Zm.12-5.406c-.481.481-.961.961-.961,1.442a1.364,1.364,0,0,0,.36.961v.12a.118.118,0,0,1-.115.12H10.223a.275.275,0,0,1-.24-.12A2,2,0,0,1,9.5,11.905a3.33,3.33,0,0,1,1.2-2.042,3.33,3.33,0,0,0,1.2-2.042c0-.6-.481-1.321-1.682-1.321a6.028,6.028,0,0,0-2.4.481H7.58V5.3c0-.12,0-.24.12-.24a7.428,7.428,0,0,1,2.883-.6c2.283,0,3.724,1.321,3.724,3.244a4.45,4.45,0,0,1-1.682,3Z" transform="translate(-0.132 -0.132)" fill="#606a81"/>
      </g>
    </g>
  </g>
</svg>
