<svg xmlns="http://www.w3.org/2000/svg" width="16" height="16" viewBox="0 0 16 16">
	<rect fill="#ff13dc" opacity="0" width="16" height="16" />
	<path fill="#2d3955" d="M2.823,14l1.189,1.191-1.87,1.834a.25.25,0,0,1-.354,0l0,0-.8-.83a.25.25,0,0,1,0-.35Z" transform="translate(0 -2)" />
	<path fill="#2d3955" d="M8.977,16.16,9,13.144,13.146,9l1.135-.012a.726.726,0,0,0,.507-1.239L12.521,5.48,10.25,3.212a.723.723,0,0,0-1.234.506L9,4.854,4.853,9l-3.012.022a.723.723,0,0,0-.554,1.233h0l3.229,3.229,3.228,3.229a.721.721,0,0,0,1.232-.554Z" transform="translate(0 -2)" />
</svg>
