<svg xmlns="http://www.w3.org/2000/svg" width="56" height="56" viewBox="0 0 56 56"><defs><style>.a{fill:none;}.b{fill:#373069;}</style></defs><g transform="translate(0.371 0.474)"><rect class="a" width="56" height="56" transform="translate(-0.371 -0.474)"/><path class="b" d="M68.6,80.489A1.794,1.794,0,0,1,66.9,82.361H36.2a1.88,1.88,0,0,1,0-3.744H66.9A1.794,1.794,0,0,1,68.6,80.489Zm-5.116-6.551A.9.9,0,0,0,64.34,73V64.654a8.368,8.368,0,0,0-5.62-8.116L48.705,53.485,42.058,40.717a.876.876,0,0,0-.471-.424l-2.871-1.051a2.372,2.372,0,0,0-2.3.386,2.9,2.9,0,0,0-1.062,2.278v7.361l-5.381-1.846-3.246-6.681a.879.879,0,0,0-.483-.447l-2.871-1.051a2.372,2.372,0,0,0-2.3.386A2.9,2.9,0,0,0,20,41.907V54.221a8.373,8.373,0,0,0,5.605,8.111L63.258,73.9a.783.783,0,0,0,.23.035Z" transform="translate(-15.321 -34.693)"/></g></svg>