<svg xmlns="http://www.w3.org/2000/svg" width="54" height="54" viewBox="0 0 54 54"><defs><style>.c{fill:none;}.b{fill:#c5d2e7;}</style></defs><g transform="translate(-0.18 -0.179)"><rect class="c" width="54" height="54" transform="translate(0.179 0.179)"/><path class="b" d="M73.974,19.4h-5.1V17.7a1.7,1.7,0,0,0-1.7-1.7H50.192a1.7,1.7,0,0,0-1.7,1.7v1.7H43.4a3.4,3.4,0,0,0-3.4,3.4V58.468a3.4,3.4,0,0,0,3.4,3.4H73.974a3.4,3.4,0,0,0,3.4-3.4V22.795A3.4,3.4,0,0,0,73.974,19.4Zm-22.083,0h13.59v5.1H51.891Zm13.59,27.179H51.891a1.7,1.7,0,1,1,0-3.4h13.59a1.7,1.7,0,0,1,0,3.4Zm0-6.795H51.891a1.7,1.7,0,0,1,0-3.4h13.59a1.7,1.7,0,0,1,0,3.4Z" transform="translate(-31.506 -12.603)"/></g></svg>