<svg xmlns="http://www.w3.org/2000/svg" width="32" height="32" viewBox="0 0 32 32">
	<g transform="translate(0.115 0.115)">
		<rect fill="none" width="32" height="32" transform="translate(-0.115 -0.115)" />
		<path fill="#FFFFFF" d="M55.576,40.97l-5.813-2.491a1.98,1.98,0,0,0-1.884.173l-3.108,2.072a9.5,9.5,0,0,1-4.369-4.35h0l2.064-3.154a1.982,1.982,0,0,0,.164-1.87l-2.493-5.818a1.989,1.989,0,0,0-2.067-1.189A6.959,6.959,0,0,0,32,31.237,17.891,17.891,0,0,0,49.871,49.108a6.959,6.959,0,0,0,6.895-6.071,1.99,1.99,0,0,0-1.189-2.067Z" transform="translate(-28.029 -21.308)" />
	</g>
</svg>
